<?xml version="1.0" encoding="UTF-8"?>
<!DOCTYPE svg PUBLIC "-//W3C//DTD SVG 1.1//EN" "http://www.w3.org/Graphics/SVG/1.1/DTD/svg11.dtd">
<svg xmlns="http://www.w3.org/2000/svg" style="shape-rendering:geometricPrecision;text-rendering:geometricPrecision;image-rendering:optimizeQuality;fill-rule:evenodd;clip-rule:evenodd" viewBox="0 0 173.344 173.344">
  <defs>
    <style>
      .str0{stroke:#fefefe;stroke-width:.3;stroke-miterlimit:2.61313}.fil1,.fil2{fill-rule:nonzero}.fil2{fill:none}.fil1{fill:#fefefe}
    </style>
  </defs>
  <g id="Layer_x0020_1">
    <g id="BlueCenter">
      <circle style="fill:#00a0e3" id="CenterCircle" cx="86.672" cy="86.672" r="86.672"/>
      <path id="CenterName" d="M42.663 71.327a6.41 6.41 0 0 1-.252 1.845 5.612 5.612 0 0 1-.718 1.526 5.418 5.418 0 0 1-1.111 1.183c-.431.336-.92.622-1.464.852a8.26 8.26 0 0 1-1.744.516c-.622.118-1.329.174-2.131.174h-5.558a1.18 1.18 0 0 1-.718-.252c-.224-.174-.336-.471-.336-.897V57.306c0-.426.112-.724.336-.897.224-.169.466-.252.718-.252h4.834c1.273 0 2.317.118 3.13.359.807.241 1.486.594 2.03 1.055.544.46.954 1.026 1.228 1.694.275.667.409 1.424.409 2.266a5.8 5.8 0 0 1-.18 1.447c-.124.46-.303.886-.539 1.273-.235.393-.527.74-.886 1.043a4.677 4.677 0 0 1-1.228.757 5.207 5.207 0 0 1 1.632.6c.499.291.942.662 1.324 1.11.376.449.673.976.892 1.576.219.606.331 1.268.331 1.991zm-4.24-9.523c0-.516-.073-.981-.213-1.402a2.568 2.568 0 0 0-.673-1.06c-.308-.292-.707-.51-1.2-.667-.494-.152-1.144-.23-1.957-.23h-2.922v6.898h3.219c.735 0 1.324-.096 1.778-.286a3.294 3.294 0 0 0 1.116-.774c.291-.325.51-.707.645-1.139.14-.432.207-.88.207-1.34zm1.279 9.691c0-.634-.101-1.195-.303-1.677a3.213 3.213 0 0 0-.886-1.217c-.393-.331-.875-.578-1.464-.752-.583-.168-1.324-.252-2.21-.252h-3.382v7.504h4.106c.645 0 1.211-.078 1.694-.23a3.759 3.759 0 0 0 1.273-.684c.365-.303.65-.678.858-1.127.207-.448.314-.97.314-1.565z" class="fil1"/>
      <path id="1" d="M57.772 77.031c0 .129-.045.23-.129.297a.924.924 0 0 1-.365.146c-.152.034-.376.05-.673.05-.281 0-.511-.017-.679-.05-.168-.033-.292-.078-.37-.146-.079-.067-.118-.163-.118-.297V75.55a7.211 7.211 0 0 1-2.159 1.609 5.843 5.843 0 0 1-2.524.567c-.78 0-1.486-.101-2.115-.303a4.58 4.58 0 0 1-1.609-.881 3.975 3.975 0 0 1-1.038-1.413c-.246-.561-.37-1.195-.37-1.907 0-.835.169-1.559.511-2.17a4.144 4.144 0 0 1 1.464-1.531c.633-.404 1.413-.712 2.333-.914.92-.202 1.957-.303 3.107-.303h2.041v-1.155a5.9 5.9 0 0 0-.18-1.515c-.123-.437-.314-.802-.583-1.094a2.489 2.489 0 0 0-1.043-.656c-.426-.152-.954-.224-1.576-.224-.667 0-1.268.078-1.795.241a9.407 9.407 0 0 0-1.396.533c-.398.196-.735.37-1.004.533-.263.163-.465.241-.594.241a.384.384 0 0 1-.23-.067.513.513 0 0 1-.174-.196.975.975 0 0 1-.107-.331 2.88 2.88 0 0 1-.033-.454c0-.269.017-.488.056-.645a.959.959 0 0 1 .28-.449c.146-.14.404-.309.763-.505.359-.191.78-.37 1.25-.533.466-.157.981-.292 1.543-.398a8.927 8.927 0 0 1 1.688-.157c1.06 0 1.963.118 2.709.359s1.346.6 1.806 1.066c.46.465.791 1.043.998 1.733.207.69.314 1.498.314 2.417v9.983zm-2.692-6.775h-2.316c-.741 0-1.385.062-1.935.191-.544.123-.998.314-1.363.561a2.35 2.35 0 0 0-.796.886 2.713 2.713 0 0 0-.252 1.194c0 .769.241 1.38.729 1.834.488.454 1.167.684 2.047.684.707 0 1.369-.18 1.974-.544.606-.359 1.245-.914 1.913-1.66v-3.146z" class="fil1"/>
      <path id="2" d="M76.347 69.409c0 1.285-.14 2.434-.42 3.461-.275 1.026-.684 1.901-1.228 2.619a5.4 5.4 0 0 1-1.991 1.66c-.785.387-1.688.578-2.703.578-.471 0-.909-.045-1.307-.14a4.536 4.536 0 0 1-1.172-.449 7.668 7.668 0 0 1-1.15-.791 14.83 14.83 0 0 1-1.211-1.15v1.817a.408.408 0 0 1-.067.23.426.426 0 0 1-.213.157 1.84 1.84 0 0 1-.37.09 4.09 4.09 0 0 1-.572.033c-.219 0-.409-.011-.561-.033a1.671 1.671 0 0 1-.381-.09c-.095-.039-.163-.09-.196-.157a.49.49 0 0 1-.051-.23V55.068c0-.09.017-.168.056-.23a.438.438 0 0 1 .219-.168c.101-.039.241-.073.421-.095a5.4 5.4 0 0 1 .662-.034c.275 0 .499.011.673.034.18.022.314.056.415.095a.473.473 0 0 1 .213.168c.045.062.067.14.067.23v8.839c.437-.449.858-.83 1.273-1.139a7.73 7.73 0 0 1 1.2-.746 5.596 5.596 0 0 1 1.183-.42 5.935 5.935 0 0 1 1.245-.129c1.071 0 1.985.213 2.748.639a5.383 5.383 0 0 1 1.851 1.716c.477.718.824 1.559 1.043 2.524.219.965.325 1.985.325 3.056zm-2.827.314c0-.757-.056-1.492-.174-2.204a6.118 6.118 0 0 0-.6-1.896 3.63 3.63 0 0 0-1.133-1.324c-.471-.337-1.06-.505-1.761-.505-.348 0-.695.05-1.037.146a3.947 3.947 0 0 0-1.032.499c-.353.23-.718.527-1.093.892-.381.359-.785.819-1.211 1.369v5.9c.746.914 1.458 1.609 2.137 2.086.679.477 1.391.718 2.126.718.679 0 1.256-.163 1.739-.494a3.821 3.821 0 0 0 1.178-1.312c.303-.539.521-1.15.656-1.823.14-.679.207-1.363.207-2.053z" class="fil1"/>
      <path id="3" d="M94.159 69.443c0 1.206-.157 2.316-.477 3.331-.314 1.009-.791 1.884-1.419 2.619-.628.735-1.419 1.307-2.361 1.716-.948.409-2.047.617-3.292.617-1.217 0-2.277-.18-3.18-.544a5.753 5.753 0 0 1-2.255-1.576c-.6-.69-1.049-1.531-1.346-2.513-.297-.987-.443-2.103-.443-3.354 0-1.206.157-2.316.465-3.326.314-1.015.785-1.89 1.413-2.624.628-.735 1.413-1.301 2.356-1.711.942-.404 2.041-.606 3.298-.606 1.217 0 2.277.18 3.18.544a5.753 5.753 0 0 1 2.255 1.576c.6.69 1.054 1.526 1.357 2.513.297.987.449 2.098.449 3.337zm-2.827.174c0-.802-.073-1.559-.224-2.271a5.525 5.525 0 0 0-.735-1.873 3.568 3.568 0 0 0-1.385-1.273c-.578-.314-1.307-.471-2.176-.471-.802 0-1.492.14-2.07.426a3.81 3.81 0 0 0-1.424 1.211c-.376.521-.651 1.138-.83 1.85a9.284 9.284 0 0 0-.275 2.333c0 .813.073 1.576.224 2.288.146.712.393 1.335.741 1.867.348.527.813.954 1.391 1.262.583.314 1.313.471 2.182.471.791 0 1.475-.14 2.058-.426a3.833 3.833 0 0 0 1.436-1.2c.376-.516.65-1.133.824-1.845a9.904 9.904 0 0 0 .263-2.35z" class="fil1"/>
      <path id="4" d="M108.809 74.737c0 .185-.006.348-.017.483-.011.14-.028.252-.056.348a1.223 1.223 0 0 1-.101.247 1.415 1.415 0 0 1-.264.314c-.134.14-.37.309-.695.516a6.795 6.795 0 0 1-1.111.544 7.827 7.827 0 0 1-1.34.387 7.284 7.284 0 0 1-1.498.151c-1.065 0-2.008-.174-2.826-.527a5.26 5.26 0 0 1-2.064-1.531c-.555-.673-.976-1.503-1.267-2.479-.292-.981-.437-2.109-.437-3.393 0-1.452.18-2.703.533-3.752.359-1.043.847-1.901 1.464-2.569a5.864 5.864 0 0 1 2.187-1.486 7.604 7.604 0 0 1 2.726-.482c.471 0 .925.045 1.369.135.449.084.852.202 1.228.342.37.146.707.308.993.499.292.185.505.348.634.477.135.135.224.241.275.314.045.078.09.168.123.275.028.101.05.219.062.353.011.129.017.298.017.494 0 .426-.051.724-.146.897-.101.169-.219.252-.365.252-.163 0-.353-.09-.566-.275a9.063 9.063 0 0 0-.813-.6 6.262 6.262 0 0 0-1.194-.6c-.466-.185-1.015-.275-1.649-.275-1.307 0-2.311.499-3.006 1.503-.695.998-1.043 2.451-1.043 4.352 0 .948.09 1.783.269 2.501.185.713.449 1.313.802 1.795.348.477.78.835 1.29 1.071.51.235 1.094.353 1.75.353.628 0 1.178-.101 1.649-.297a6.569 6.569 0 0 0 1.223-.656c.348-.236.639-.449.875-.639.235-.196.415-.292.55-.292.073 0 .14.022.196.067a.509.509 0 0 1 .14.219c.039.107.067.236.084.398.017.157.022.348.022.566z" class="fil1"/>
      <path id="5" d="M121.691 72.976c0 .757-.14 1.43-.421 2.025a4.102 4.102 0 0 1-1.189 1.492 5.403 5.403 0 0 1-1.839.92 8.407 8.407 0 0 1-2.35.314 8.646 8.646 0 0 1-1.503-.123 8.176 8.176 0 0 1-1.284-.309 6.696 6.696 0 0 1-.959-.387 2.726 2.726 0 0 1-.572-.365.88.88 0 0 1-.263-.46c-.056-.196-.084-.465-.084-.807 0-.207.011-.381.033-.522a2.3 2.3 0 0 1 .079-.348.39.39 0 0 1 .14-.191.374.374 0 0 1 .207-.056c.118 0 .297.073.533.224.236.146.527.309.869.482.342.174.752.337 1.223.482.471.152 1.009.224 1.621.224.46 0 .875-.05 1.245-.152.376-.095.696-.241.97-.437.275-.191.482-.437.633-.735.146-.297.219-.65.219-1.06 0-.415-.107-.769-.32-1.049a3.067 3.067 0 0 0-.841-.757 7.005 7.005 0 0 0-1.183-.583c-.437-.168-.886-.348-1.352-.533a15.6 15.6 0 0 1-1.357-.634 5.19 5.19 0 0 1-1.189-.864 3.99 3.99 0 0 1-.841-1.217c-.213-.471-.32-1.032-.32-1.694 0-.578.112-1.133.337-1.666a3.843 3.843 0 0 1 1.009-1.396c.454-.398 1.015-.723 1.688-.965.673-.241 1.458-.359 2.361-.359.393 0 .785.034 1.183.101.393.067.746.157 1.065.258.32.101.589.213.813.331.224.124.398.224.51.32.118.09.191.169.23.23a.732.732 0 0 1 .084.224 3.35 3.35 0 0 1 .072.74c0 .185-.006.348-.022.482a1.143 1.143 0 0 1-.084.331.424.424 0 0 1-.141.191.31.31 0 0 1-.179.056c-.101 0-.241-.062-.432-.185a6.573 6.573 0 0 0-.724-.387 7.383 7.383 0 0 0-1.043-.387 4.667 4.667 0 0 0-1.374-.185c-.46 0-.869.05-1.217.157a2.296 2.296 0 0 0-.864.437 1.827 1.827 0 0 0-.51.679 2.022 2.022 0 0 0-.174.847c0 .426.112.785.331 1.077.219.292.499.544.852.763.348.219.752.415 1.2.594.448.174.903.354 1.369.539.465.191.925.398 1.38.628.454.23.858.511 1.206.836.353.331.633.723.847 1.183.213.46.32 1.009.32 1.643z" class="fil1"/>
      <path id="6" d="M136.705 77.031c0 .129-.045.23-.129.297a.924.924 0 0 1-.365.146c-.152.034-.376.05-.673.05-.281 0-.511-.017-.679-.05-.168-.033-.292-.078-.37-.146-.079-.067-.118-.163-.118-.297V75.55a7.211 7.211 0 0 1-2.159 1.609 5.843 5.843 0 0 1-2.524.567c-.78 0-1.486-.101-2.115-.303a4.58 4.58 0 0 1-1.609-.881 3.975 3.975 0 0 1-1.038-1.413c-.246-.561-.37-1.195-.37-1.907 0-.835.169-1.559.511-2.17a4.144 4.144 0 0 1 1.464-1.531c.633-.404 1.413-.712 2.333-.914.92-.202 1.957-.303 3.107-.303h2.041v-1.155a5.9 5.9 0 0 0-.18-1.515c-.123-.437-.314-.802-.583-1.094a2.489 2.489 0 0 0-1.043-.656c-.426-.152-.954-.224-1.576-.224-.667 0-1.268.078-1.795.241a9.407 9.407 0 0 0-1.396.533c-.398.196-.735.37-1.004.533-.263.163-.465.241-.594.241a.384.384 0 0 1-.23-.067.513.513 0 0 1-.174-.196.975.975 0 0 1-.107-.331 2.88 2.88 0 0 1-.033-.454c0-.269.017-.488.056-.645a.959.959 0 0 1 .28-.449c.146-.14.404-.309.763-.505.359-.191.78-.37 1.25-.533.466-.157.981-.292 1.543-.398a8.927 8.927 0 0 1 1.688-.157c1.06 0 1.963.118 2.709.359s1.346.6 1.806 1.066c.46.465.791 1.043.998 1.733.207.69.314 1.498.314 2.417v9.983zm-2.692-6.775h-2.316c-.741 0-1.385.062-1.935.191-.544.123-.998.314-1.363.561a2.35 2.35 0 0 0-.796.886 2.713 2.713 0 0 0-.252 1.194c0 .769.241 1.38.729 1.834.488.454 1.167.684 2.047.684.707 0 1.369-.18 1.974-.544.606-.359 1.245-.914 1.913-1.66v-3.146z" class="fil1"/>
      <path id="7" d="M144.411 77.014c0 .09-.022.163-.067.224a.556.556 0 0 1-.213.157 1.744 1.744 0 0 1-.415.095 5.558 5.558 0 0 1-.673.033c-.269 0-.488-.011-.662-.033a1.805 1.805 0 0 1-.421-.095.511.511 0 0 1-.219-.157.408.408 0 0 1-.056-.224V62.219a.39.39 0 0 1 .056-.213.439.439 0 0 1 .219-.169c.101-.039.241-.073.421-.095.174-.022.393-.033.662-.033.275 0 .499.011.673.033.18.022.314.056.415.095a.468.468 0 0 1 .213.169.353.353 0 0 1 .067.213v14.795zm.303-19.781c0 .639-.124 1.071-.365 1.301-.241.23-.684.348-1.335.348-.639 0-1.077-.112-1.313-.337-.235-.224-.353-.65-.353-1.279 0-.639.123-1.071.365-1.301.241-.23.684-.348 1.335-.348.639 0 1.077.112 1.312.337.236.224.354.65.354 1.279z" class="fil1"/>
      <path id="8" d="M59.264 117.26c0 .224-.011.409-.033.555a1.35 1.35 0 0 1-.107.381.572.572 0 0 1-.18.23.44.44 0 0 1-.258.073h-9.405a1.18 1.18 0 0 1-.718-.252c-.224-.174-.336-.471-.336-.897V97.659c0-.09.022-.168.067-.23a.431.431 0 0 1 .23-.157c.106-.039.258-.073.443-.101a4.63 4.63 0 0 1 .673-.039c.275 0 .499.011.684.039.18.028.326.062.432.101.112.039.185.09.23.157.045.062.067.14.067.23v18.385h7.633c.101 0 .185.022.258.073.067.05.129.123.18.213.051.095.084.219.107.376.022.152.033.337.033.556z" class="fil1"/>
      <path id="9" d="M73.207 118.107c0 .129-.045.23-.129.297a.924.924 0 0 1-.365.146c-.152.034-.376.05-.673.05-.281 0-.511-.017-.679-.05-.168-.033-.292-.078-.37-.146-.079-.067-.118-.163-.118-.297v-1.481a7.211 7.211 0 0 1-2.159 1.609 5.843 5.843 0 0 1-2.524.567c-.78 0-1.486-.101-2.115-.303a4.58 4.58 0 0 1-1.609-.881 3.975 3.975 0 0 1-1.038-1.413c-.246-.561-.37-1.195-.37-1.907 0-.835.169-1.559.511-2.17a4.144 4.144 0 0 1 1.464-1.531c.633-.404 1.413-.712 2.333-.914.92-.202 1.957-.303 3.107-.303h2.041v-1.155a5.9 5.9 0 0 0-.18-1.515c-.123-.437-.314-.802-.583-1.094a2.489 2.489 0 0 0-1.043-.656c-.426-.152-.954-.224-1.576-.224-.667 0-1.268.078-1.795.241a9.407 9.407 0 0 0-1.396.533c-.398.196-.735.37-1.004.533-.263.163-.465.241-.594.241a.384.384 0 0 1-.23-.067.513.513 0 0 1-.174-.196.975.975 0 0 1-.107-.331 2.88 2.88 0 0 1-.033-.454c0-.269.017-.488.056-.645a.959.959 0 0 1 .28-.449c.146-.14.404-.309.763-.505.359-.191.78-.37 1.25-.533.466-.157.981-.292 1.543-.398a8.927 8.927 0 0 1 1.688-.157c1.06 0 1.963.118 2.709.359s1.346.6 1.806 1.066c.46.465.791 1.043.998 1.733.207.69.314 1.498.314 2.417v9.983zm-2.692-6.775h-2.316c-.741 0-1.385.062-1.935.191-.544.123-.998.314-1.363.561a2.35 2.35 0 0 0-.796.886 2.713 2.713 0 0 0-.252 1.194c0 .769.241 1.38.729 1.834.488.454 1.167.684 2.047.684.707 0 1.369-.18 1.974-.544.606-.359 1.245-.914 1.913-1.66v-3.146zm-1.621-15.243a.963.963 0 0 1 .555-.477c.124-.039.281-.073.466-.095.185-.022.415-.034.678-.034.303 0 .556.017.746.056.191.039.325.095.404.168a.268.268 0 0 1 .095.247.532.532 0 0 1-.146.286l-2.978 3.831c-.09.112-.168.196-.235.263a.878.878 0 0 1-.247.157 1.417 1.417 0 0 1-.365.084 5.029 5.029 0 0 1-.55.022c-.241 0-.432-.017-.578-.05a.79.79 0 0 1-.303-.129.214.214 0 0 1-.067-.213.87.87 0 0 1 .14-.314l2.383-3.802z" class="fil1"/>
      <path id="10" d="M87.474 114.052c0 .757-.14 1.43-.421 2.025a4.102 4.102 0 0 1-1.189 1.492 5.403 5.403 0 0 1-1.839.92 8.407 8.407 0 0 1-2.35.314 8.646 8.646 0 0 1-1.503-.123 8.176 8.176 0 0 1-1.284-.309 6.696 6.696 0 0 1-.959-.387 2.726 2.726 0 0 1-.572-.365.88.88 0 0 1-.263-.46c-.056-.196-.084-.465-.084-.807 0-.207.011-.381.033-.522a2.3 2.3 0 0 1 .079-.348.39.39 0 0 1 .14-.191.374.374 0 0 1 .207-.056c.118 0 .297.073.533.224.236.146.527.309.869.482.342.174.752.337 1.223.482.471.152 1.009.224 1.621.224.46 0 .875-.05 1.245-.152.376-.095.696-.241.97-.437.275-.191.482-.437.633-.735.146-.297.219-.65.219-1.06 0-.415-.107-.769-.32-1.049a3.067 3.067 0 0 0-.841-.757 7.005 7.005 0 0 0-1.183-.583c-.437-.168-.886-.348-1.352-.533a15.6 15.6 0 0 1-1.357-.634 5.19 5.19 0 0 1-1.189-.864 3.99 3.99 0 0 1-.841-1.217c-.213-.471-.32-1.032-.32-1.694 0-.578.112-1.133.337-1.666a3.843 3.843 0 0 1 1.009-1.396c.454-.398 1.015-.723 1.688-.965.673-.241 1.458-.359 2.361-.359.393 0 .785.034 1.183.101.393.067.746.157 1.065.258.32.101.589.213.813.331.224.124.398.224.51.32.118.09.191.169.23.23a.732.732 0 0 1 .084.224 3.35 3.35 0 0 1 .072.74c0 .185-.006.348-.022.482a1.143 1.143 0 0 1-.084.331.424.424 0 0 1-.141.191.31.31 0 0 1-.179.056c-.101 0-.241-.062-.432-.185a6.573 6.573 0 0 0-.724-.387 7.383 7.383 0 0 0-1.043-.387 4.667 4.667 0 0 0-1.374-.185c-.46 0-.869.05-1.217.157a2.296 2.296 0 0 0-.864.437 1.827 1.827 0 0 0-.51.679 2.022 2.022 0 0 0-.174.847c0 .426.112.785.331 1.077.219.292.499.544.852.763.348.219.752.415 1.2.594.448.174.903.354 1.369.539.465.191.925.398 1.38.628.454.23.858.511 1.206.836.353.331.633.723.847 1.183.213.46.32 1.009.32 1.643z" class="fil1"/>
      <path id="11" d="M100.475 117.344c0 .213-.017.387-.051.539a2.366 2.366 0 0 1-.112.365.416.416 0 0 1-.185.196.518.518 0 0 1-.246.056h-9.114a.756.756 0 0 1-.567-.23c-.152-.152-.224-.409-.224-.774v-.561c0-.152.011-.292.034-.409.022-.124.056-.241.095-.365.045-.118.107-.247.185-.387.073-.135.168-.292.28-.466l6.534-10.134h-6.337c-.174 0-.314-.09-.421-.269-.106-.185-.157-.477-.157-.886 0-.196.011-.37.033-.516.022-.146.056-.269.107-.365a.5.5 0 0 1 .18-.196.534.534 0 0 1 .258-.056h8.491c.118 0 .224.017.32.05a.543.543 0 0 1 .241.163.924.924 0 0 1 .157.297c.033.118.056.275.056.46v.527c0 .152-.011.297-.033.426a2.113 2.113 0 0 1-.101.387 2.454 2.454 0 0 1-.18.404c-.078.14-.168.303-.28.477l-6.5 10.134h6.943c.089 0 .168.017.241.056a.458.458 0 0 1 .18.191c.05.09.09.207.123.353.034.152.051.325.051.533z" class="fil1"/>
      <path id="12" d="M107.07 118.09c0 .09-.022.163-.067.224a.556.556 0 0 1-.213.157 1.744 1.744 0 0 1-.415.095 5.558 5.558 0 0 1-.673.033c-.269 0-.488-.011-.662-.033a1.805 1.805 0 0 1-.421-.095.511.511 0 0 1-.219-.157.408.408 0 0 1-.056-.224V96.144c0-.09.017-.168.056-.23a.438.438 0 0 1 .219-.168c.101-.039.241-.073.421-.095a5.4 5.4 0 0 1 .662-.034c.275 0 .499.011.673.034.18.022.314.056.415.095a.473.473 0 0 1 .213.168c.045.062.067.14.067.23v21.946z" class="fil1"/>
      <path id="13" d="M125.796 110.519c0 1.206-.157 2.316-.477 3.331-.314 1.009-.791 1.884-1.419 2.619-.628.735-1.419 1.307-2.361 1.716-.948.409-2.047.617-3.292.617-1.217 0-2.277-.18-3.18-.544a5.753 5.753 0 0 1-2.255-1.576c-.6-.69-1.049-1.531-1.346-2.513-.297-.987-.443-2.103-.443-3.354 0-1.206.157-2.316.465-3.326.314-1.015.785-1.89 1.413-2.624.628-.735 1.413-1.301 2.356-1.711.942-.404 2.041-.606 3.298-.606 1.217 0 2.277.18 3.18.544a5.753 5.753 0 0 1 2.255 1.576c.6.69 1.054 1.526 1.357 2.513.297.987.449 2.098.449 3.337zm-2.827.174c0-.802-.073-1.559-.224-2.271a5.525 5.525 0 0 0-.735-1.873 3.568 3.568 0 0 0-1.385-1.273c-.578-.314-1.307-.471-2.176-.471-.802 0-1.492.14-2.07.426a3.81 3.81 0 0 0-1.424 1.211c-.376.521-.651 1.138-.83 1.85a9.284 9.284 0 0 0-.275 2.333c0 .813.073 1.576.224 2.288.146.712.393 1.335.741 1.867.348.527.813.954 1.391 1.262.583.314 1.313.471 2.182.471.791 0 1.475-.14 2.058-.426a3.833 3.833 0 0 0 1.436-1.2c.376-.516.65-1.133.824-1.845a9.904 9.904 0 0 0 .263-2.35zm-3.202-14.604a.958.958 0 0 1 .556-.477c.123-.039.28-.073.465-.095.185-.022.415-.034.679-.034.303 0 .555.017.746.056.191.039.325.095.404.168a.266.266 0 0 1 .095.247.532.532 0 0 1-.146.286l-2.978 3.831c-.09.112-.168.196-.235.263a.878.878 0 0 1-.247.157 1.417 1.417 0 0 1-.365.084 5.029 5.029 0 0 1-.55.022c-.241 0-.432-.017-.578-.05a.79.79 0 0 1-.303-.129.214.214 0 0 1-.067-.213.887.887 0 0 1 .14-.314l2.383-3.802z" class="fil1"/>
      <path id="14" d="M42.663 71.327a6.41 6.41 0 0 1-.252 1.845 5.612 5.612 0 0 1-.718 1.526 5.418 5.418 0 0 1-1.111 1.183c-.431.336-.92.622-1.464.852a8.26 8.26 0 0 1-1.744.516c-.622.118-1.329.174-2.131.174h-5.558a1.18 1.18 0 0 1-.718-.252c-.224-.174-.336-.471-.336-.897V57.306c0-.426.112-.724.336-.897.224-.169.466-.252.718-.252h4.834c1.273 0 2.317.118 3.13.359.807.241 1.486.594 2.03 1.055.544.46.954 1.026 1.228 1.694.275.667.409 1.424.409 2.266a5.8 5.8 0 0 1-.18 1.447c-.124.46-.303.886-.539 1.273-.235.393-.527.74-.886 1.043a4.677 4.677 0 0 1-1.228.757 5.207 5.207 0 0 1 1.632.6c.499.291.942.662 1.324 1.11.376.449.673.976.892 1.576.219.606.331 1.268.331 1.991zm-4.24-9.523c0-.516-.073-.981-.213-1.402a2.568 2.568 0 0 0-.673-1.06c-.308-.292-.707-.51-1.2-.667-.494-.152-1.144-.23-1.957-.23h-2.922v6.898h3.219c.735 0 1.324-.096 1.778-.286a3.294 3.294 0 0 0 1.116-.774c.291-.325.51-.707.645-1.139.14-.432.207-.88.207-1.34zm1.279 9.691c0-.634-.101-1.195-.303-1.677a3.213 3.213 0 0 0-.886-1.217c-.393-.331-.875-.578-1.464-.752-.583-.168-1.324-.252-2.21-.252h-3.382v7.504h4.106c.645 0 1.211-.078 1.694-.23a3.759 3.759 0 0 0 1.273-.684c.365-.303.65-.678.858-1.127.207-.448.314-.97.314-1.565z" class="fil2 str0"/>
      <path id="15" d="M57.772 77.031c0 .129-.045.23-.129.297a.924.924 0 0 1-.365.146c-.152.034-.376.05-.673.05-.281 0-.511-.017-.679-.05-.168-.033-.292-.078-.37-.146-.079-.067-.118-.163-.118-.297V75.55a7.211 7.211 0 0 1-2.159 1.609 5.843 5.843 0 0 1-2.524.567c-.78 0-1.486-.101-2.115-.303a4.58 4.58 0 0 1-1.609-.881 3.975 3.975 0 0 1-1.038-1.413c-.246-.561-.37-1.195-.37-1.907 0-.835.169-1.559.511-2.17a4.144 4.144 0 0 1 1.464-1.531c.633-.404 1.413-.712 2.333-.914.92-.202 1.957-.303 3.107-.303h2.041v-1.155a5.9 5.9 0 0 0-.18-1.515c-.123-.437-.314-.802-.583-1.094a2.489 2.489 0 0 0-1.043-.656c-.426-.152-.954-.224-1.576-.224-.667 0-1.268.078-1.795.241a9.407 9.407 0 0 0-1.396.533c-.398.196-.735.37-1.004.533-.263.163-.465.241-.594.241a.384.384 0 0 1-.23-.067.513.513 0 0 1-.174-.196.975.975 0 0 1-.107-.331 2.88 2.88 0 0 1-.033-.454c0-.269.017-.488.056-.645a.959.959 0 0 1 .28-.449c.146-.14.404-.309.763-.505.359-.191.78-.37 1.25-.533.466-.157.981-.292 1.543-.398a8.927 8.927 0 0 1 1.688-.157c1.06 0 1.963.118 2.709.359s1.346.6 1.806 1.066c.46.465.791 1.043.998 1.733.207.69.314 1.498.314 2.417v9.983zm-2.692-6.775h-2.316c-.741 0-1.385.062-1.935.191-.544.123-.998.314-1.363.561a2.35 2.35 0 0 0-.796.886 2.713 2.713 0 0 0-.252 1.194c0 .769.241 1.38.729 1.834.488.454 1.167.684 2.047.684.707 0 1.369-.18 1.974-.544.606-.359 1.245-.914 1.913-1.66v-3.146z" class="fil2 str0"/>
      <path id="16" d="M76.347 69.409c0 1.285-.14 2.434-.42 3.461-.275 1.026-.684 1.901-1.228 2.619a5.4 5.4 0 0 1-1.991 1.66c-.785.387-1.688.578-2.703.578-.471 0-.909-.045-1.307-.14a4.536 4.536 0 0 1-1.172-.449 7.668 7.668 0 0 1-1.15-.791 14.83 14.83 0 0 1-1.211-1.15v1.817a.408.408 0 0 1-.067.23.426.426 0 0 1-.213.157 1.84 1.84 0 0 1-.37.09 4.09 4.09 0 0 1-.572.033c-.219 0-.409-.011-.561-.033a1.671 1.671 0 0 1-.381-.09c-.095-.039-.163-.09-.196-.157a.49.49 0 0 1-.051-.23V55.068c0-.09.017-.168.056-.23a.438.438 0 0 1 .219-.168c.101-.039.241-.073.421-.095a5.4 5.4 0 0 1 .662-.034c.275 0 .499.011.673.034.18.022.314.056.415.095a.473.473 0 0 1 .213.168c.045.062.067.14.067.23v8.839c.437-.449.858-.83 1.273-1.139a7.73 7.73 0 0 1 1.2-.746 5.596 5.596 0 0 1 1.183-.42 5.935 5.935 0 0 1 1.245-.129c1.071 0 1.985.213 2.748.639a5.383 5.383 0 0 1 1.851 1.716c.477.718.824 1.559 1.043 2.524.219.965.325 1.985.325 3.056zm-2.827.314c0-.757-.056-1.492-.174-2.204a6.118 6.118 0 0 0-.6-1.896 3.63 3.63 0 0 0-1.133-1.324c-.471-.337-1.06-.505-1.761-.505-.348 0-.695.05-1.037.146a3.947 3.947 0 0 0-1.032.499c-.353.23-.718.527-1.093.892-.381.359-.785.819-1.211 1.369v5.9c.746.914 1.458 1.609 2.137 2.086.679.477 1.391.718 2.126.718.679 0 1.256-.163 1.739-.494a3.821 3.821 0 0 0 1.178-1.312c.303-.539.521-1.15.656-1.823.14-.679.207-1.363.207-2.053z" class="fil2 str0"/>
      <path id="17" d="M94.159 69.443c0 1.206-.157 2.316-.477 3.331-.314 1.009-.791 1.884-1.419 2.619-.628.735-1.419 1.307-2.361 1.716-.948.409-2.047.617-3.292.617-1.217 0-2.277-.18-3.18-.544a5.753 5.753 0 0 1-2.255-1.576c-.6-.69-1.049-1.531-1.346-2.513-.297-.987-.443-2.103-.443-3.354 0-1.206.157-2.316.465-3.326.314-1.015.785-1.89 1.413-2.624.628-.735 1.413-1.301 2.356-1.711.942-.404 2.041-.606 3.298-.606 1.217 0 2.277.18 3.18.544a5.753 5.753 0 0 1 2.255 1.576c.6.69 1.054 1.526 1.357 2.513.297.987.449 2.098.449 3.337zm-2.827.174c0-.802-.073-1.559-.224-2.271a5.525 5.525 0 0 0-.735-1.873 3.568 3.568 0 0 0-1.385-1.273c-.578-.314-1.307-.471-2.176-.471-.802 0-1.492.14-2.07.426a3.81 3.81 0 0 0-1.424 1.211c-.376.521-.651 1.138-.83 1.85a9.284 9.284 0 0 0-.275 2.333c0 .813.073 1.576.224 2.288.146.712.393 1.335.741 1.867.348.527.813.954 1.391 1.262.583.314 1.313.471 2.182.471.791 0 1.475-.14 2.058-.426a3.833 3.833 0 0 0 1.436-1.2c.376-.516.65-1.133.824-1.845a9.904 9.904 0 0 0 .263-2.35z" class="fil2 str0"/>
      <path id="18" d="M108.809 74.737c0 .185-.006.348-.017.483-.011.14-.028.252-.056.348a1.223 1.223 0 0 1-.101.247 1.415 1.415 0 0 1-.264.314c-.134.14-.37.309-.695.516a6.795 6.795 0 0 1-1.111.544 7.827 7.827 0 0 1-1.34.387 7.284 7.284 0 0 1-1.498.151c-1.065 0-2.008-.174-2.826-.527a5.26 5.26 0 0 1-2.064-1.531c-.555-.673-.976-1.503-1.267-2.479-.292-.981-.437-2.109-.437-3.393 0-1.452.18-2.703.533-3.752.359-1.043.847-1.901 1.464-2.569a5.864 5.864 0 0 1 2.187-1.486 7.604 7.604 0 0 1 2.726-.482c.471 0 .925.045 1.369.135.449.084.852.202 1.228.342.37.146.707.308.993.499.292.185.505.348.634.477.135.135.224.241.275.314.045.078.09.168.123.275.028.101.05.219.062.353.011.129.017.298.017.494 0 .426-.051.724-.146.897-.101.169-.219.252-.365.252-.163 0-.353-.09-.566-.275a9.063 9.063 0 0 0-.813-.6 6.262 6.262 0 0 0-1.194-.6c-.466-.185-1.015-.275-1.649-.275-1.307 0-2.311.499-3.006 1.503-.695.998-1.043 2.451-1.043 4.352 0 .948.09 1.783.269 2.501.185.713.449 1.313.802 1.795.348.477.78.835 1.29 1.071.51.235 1.094.353 1.75.353.628 0 1.178-.101 1.649-.297a6.569 6.569 0 0 0 1.223-.656c.348-.236.639-.449.875-.639.235-.196.415-.292.55-.292.073 0 .14.022.196.067a.509.509 0 0 1 .14.219c.039.107.067.236.084.398.017.157.022.348.022.566z" class="fil2 str0"/>
      <path id="19" d="M121.691 72.976c0 .757-.14 1.43-.421 2.025a4.102 4.102 0 0 1-1.189 1.492 5.403 5.403 0 0 1-1.839.92 8.407 8.407 0 0 1-2.35.314 8.646 8.646 0 0 1-1.503-.123 8.176 8.176 0 0 1-1.284-.309 6.696 6.696 0 0 1-.959-.387 2.726 2.726 0 0 1-.572-.365.88.88 0 0 1-.263-.46c-.056-.196-.084-.465-.084-.807 0-.207.011-.381.033-.522a2.3 2.3 0 0 1 .079-.348.39.39 0 0 1 .14-.191.374.374 0 0 1 .207-.056c.118 0 .297.073.533.224.236.146.527.309.869.482.342.174.752.337 1.223.482.471.152 1.009.224 1.621.224.46 0 .875-.05 1.245-.152.376-.095.696-.241.97-.437.275-.191.482-.437.633-.735.146-.297.219-.65.219-1.06 0-.415-.107-.769-.32-1.049a3.067 3.067 0 0 0-.841-.757 7.005 7.005 0 0 0-1.183-.583c-.437-.168-.886-.348-1.352-.533a15.6 15.6 0 0 1-1.357-.634 5.19 5.19 0 0 1-1.189-.864 3.99 3.99 0 0 1-.841-1.217c-.213-.471-.32-1.032-.32-1.694 0-.578.112-1.133.337-1.666a3.843 3.843 0 0 1 1.009-1.396c.454-.398 1.015-.723 1.688-.965.673-.241 1.458-.359 2.361-.359.393 0 .785.034 1.183.101.393.067.746.157 1.065.258.32.101.589.213.813.331.224.124.398.224.51.32.118.09.191.169.23.23a.732.732 0 0 1 .084.224 3.35 3.35 0 0 1 .072.74c0 .185-.006.348-.022.482a1.143 1.143 0 0 1-.084.331.424.424 0 0 1-.141.191.31.31 0 0 1-.179.056c-.101 0-.241-.062-.432-.185a6.573 6.573 0 0 0-.724-.387 7.383 7.383 0 0 0-1.043-.387 4.667 4.667 0 0 0-1.374-.185c-.46 0-.869.05-1.217.157a2.296 2.296 0 0 0-.864.437 1.827 1.827 0 0 0-.51.679 2.022 2.022 0 0 0-.174.847c0 .426.112.785.331 1.077.219.292.499.544.852.763.348.219.752.415 1.2.594.448.174.903.354 1.369.539.465.191.925.398 1.38.628.454.23.858.511 1.206.836.353.331.633.723.847 1.183.213.46.32 1.009.32 1.643z" class="fil2 str0"/>
      <path id="20" d="M136.705 77.031c0 .129-.045.23-.129.297a.924.924 0 0 1-.365.146c-.152.034-.376.05-.673.05-.281 0-.511-.017-.679-.05-.168-.033-.292-.078-.37-.146-.079-.067-.118-.163-.118-.297V75.55a7.211 7.211 0 0 1-2.159 1.609 5.843 5.843 0 0 1-2.524.567c-.78 0-1.486-.101-2.115-.303a4.58 4.58 0 0 1-1.609-.881 3.975 3.975 0 0 1-1.038-1.413c-.246-.561-.37-1.195-.37-1.907 0-.835.169-1.559.511-2.17a4.144 4.144 0 0 1 1.464-1.531c.633-.404 1.413-.712 2.333-.914.92-.202 1.957-.303 3.107-.303h2.041v-1.155a5.9 5.9 0 0 0-.18-1.515c-.123-.437-.314-.802-.583-1.094a2.489 2.489 0 0 0-1.043-.656c-.426-.152-.954-.224-1.576-.224-.667 0-1.268.078-1.795.241a9.407 9.407 0 0 0-1.396.533c-.398.196-.735.37-1.004.533-.263.163-.465.241-.594.241a.384.384 0 0 1-.23-.067.513.513 0 0 1-.174-.196.975.975 0 0 1-.107-.331 2.88 2.88 0 0 1-.033-.454c0-.269.017-.488.056-.645a.959.959 0 0 1 .28-.449c.146-.14.404-.309.763-.505.359-.191.78-.37 1.25-.533.466-.157.981-.292 1.543-.398a8.927 8.927 0 0 1 1.688-.157c1.06 0 1.963.118 2.709.359s1.346.6 1.806 1.066c.46.465.791 1.043.998 1.733.207.69.314 1.498.314 2.417v9.983zm-2.692-6.775h-2.316c-.741 0-1.385.062-1.935.191-.544.123-.998.314-1.363.561a2.35 2.35 0 0 0-.796.886 2.713 2.713 0 0 0-.252 1.194c0 .769.241 1.38.729 1.834.488.454 1.167.684 2.047.684.707 0 1.369-.18 1.974-.544.606-.359 1.245-.914 1.913-1.66v-3.146z" class="fil2 str0"/>
      <path id="21" d="M144.411 77.014c0 .09-.022.163-.067.224a.556.556 0 0 1-.213.157 1.744 1.744 0 0 1-.415.095 5.558 5.558 0 0 1-.673.033c-.269 0-.488-.011-.662-.033a1.805 1.805 0 0 1-.421-.095.511.511 0 0 1-.219-.157.408.408 0 0 1-.056-.224V62.219a.39.39 0 0 1 .056-.213.439.439 0 0 1 .219-.169c.101-.039.241-.073.421-.095.174-.022.393-.033.662-.033.275 0 .499.011.673.033.18.022.314.056.415.095a.468.468 0 0 1 .213.169.353.353 0 0 1 .067.213v14.795zm.303-19.781c0 .639-.124 1.071-.365 1.301-.241.23-.684.348-1.335.348-.639 0-1.077-.112-1.313-.337-.235-.224-.353-.65-.353-1.279 0-.639.123-1.071.365-1.301.241-.23.684-.348 1.335-.348.639 0 1.077.112 1.312.337.236.224.354.65.354 1.279z" class="fil2 str0"/>
      <path id="22" d="M59.264 117.26c0 .224-.011.409-.033.555a1.35 1.35 0 0 1-.107.381.572.572 0 0 1-.18.23.44.44 0 0 1-.258.073h-9.405a1.18 1.18 0 0 1-.718-.252c-.224-.174-.336-.471-.336-.897V97.659c0-.09.022-.168.067-.23a.431.431 0 0 1 .23-.157c.106-.039.258-.073.443-.101a4.63 4.63 0 0 1 .673-.039c.275 0 .499.011.684.039.18.028.326.062.432.101.112.039.185.09.23.157.045.062.067.14.067.23v18.385h7.633c.101 0 .185.022.258.073.067.05.129.123.18.213.051.095.084.219.107.376.022.152.033.337.033.556z" class="fil2 str0"/>
      <path id="23" d="M73.207 118.107c0 .129-.045.23-.129.297a.924.924 0 0 1-.365.146c-.152.034-.376.05-.673.05-.281 0-.511-.017-.679-.05-.168-.033-.292-.078-.37-.146-.079-.067-.118-.163-.118-.297v-1.481a7.211 7.211 0 0 1-2.159 1.609 5.843 5.843 0 0 1-2.524.567c-.78 0-1.486-.101-2.115-.303a4.58 4.58 0 0 1-1.609-.881 3.975 3.975 0 0 1-1.038-1.413c-.246-.561-.37-1.195-.37-1.907 0-.835.169-1.559.511-2.17a4.144 4.144 0 0 1 1.464-1.531c.633-.404 1.413-.712 2.333-.914.92-.202 1.957-.303 3.107-.303h2.041v-1.155a5.9 5.9 0 0 0-.18-1.515c-.123-.437-.314-.802-.583-1.094a2.489 2.489 0 0 0-1.043-.656c-.426-.152-.954-.224-1.576-.224-.667 0-1.268.078-1.795.241a9.407 9.407 0 0 0-1.396.533c-.398.196-.735.37-1.004.533-.263.163-.465.241-.594.241a.384.384 0 0 1-.23-.067.513.513 0 0 1-.174-.196.975.975 0 0 1-.107-.331 2.88 2.88 0 0 1-.033-.454c0-.269.017-.488.056-.645a.959.959 0 0 1 .28-.449c.146-.14.404-.309.763-.505.359-.191.78-.37 1.25-.533.466-.157.981-.292 1.543-.398a8.927 8.927 0 0 1 1.688-.157c1.06 0 1.963.118 2.709.359s1.346.6 1.806 1.066c.46.465.791 1.043.998 1.733.207.69.314 1.498.314 2.417v9.983zm-2.692-6.775h-2.316c-.741 0-1.385.062-1.935.191-.544.123-.998.314-1.363.561a2.35 2.35 0 0 0-.796.886 2.713 2.713 0 0 0-.252 1.194c0 .769.241 1.38.729 1.834.488.454 1.167.684 2.047.684.707 0 1.369-.18 1.974-.544.606-.359 1.245-.914 1.913-1.66v-3.146zm-1.621-15.243a.963.963 0 0 1 .555-.477c.124-.039.281-.073.466-.095.185-.022.415-.034.678-.034.303 0 .556.017.746.056.191.039.325.095.404.168a.268.268 0 0 1 .095.247.532.532 0 0 1-.146.286l-2.978 3.831c-.09.112-.168.196-.235.263a.878.878 0 0 1-.247.157 1.417 1.417 0 0 1-.365.084 5.029 5.029 0 0 1-.55.022c-.241 0-.432-.017-.578-.05a.79.79 0 0 1-.303-.129.214.214 0 0 1-.067-.213.87.87 0 0 1 .14-.314l2.383-3.802z" class="fil2 str0"/>
      <path id="24" d="M87.474 114.052c0 .757-.14 1.43-.421 2.025a4.102 4.102 0 0 1-1.189 1.492 5.403 5.403 0 0 1-1.839.92 8.407 8.407 0 0 1-2.35.314 8.646 8.646 0 0 1-1.503-.123 8.176 8.176 0 0 1-1.284-.309 6.696 6.696 0 0 1-.959-.387 2.726 2.726 0 0 1-.572-.365.88.88 0 0 1-.263-.46c-.056-.196-.084-.465-.084-.807 0-.207.011-.381.033-.522a2.3 2.3 0 0 1 .079-.348.39.39 0 0 1 .14-.191.374.374 0 0 1 .207-.056c.118 0 .297.073.533.224.236.146.527.309.869.482.342.174.752.337 1.223.482.471.152 1.009.224 1.621.224.46 0 .875-.05 1.245-.152.376-.095.696-.241.97-.437.275-.191.482-.437.633-.735.146-.297.219-.65.219-1.06 0-.415-.107-.769-.32-1.049a3.067 3.067 0 0 0-.841-.757 7.005 7.005 0 0 0-1.183-.583c-.437-.168-.886-.348-1.352-.533a15.6 15.6 0 0 1-1.357-.634 5.19 5.19 0 0 1-1.189-.864 3.99 3.99 0 0 1-.841-1.217c-.213-.471-.32-1.032-.32-1.694 0-.578.112-1.133.337-1.666a3.843 3.843 0 0 1 1.009-1.396c.454-.398 1.015-.723 1.688-.965.673-.241 1.458-.359 2.361-.359.393 0 .785.034 1.183.101.393.067.746.157 1.065.258.32.101.589.213.813.331.224.124.398.224.51.32.118.09.191.169.23.23a.732.732 0 0 1 .084.224 3.35 3.35 0 0 1 .072.74c0 .185-.006.348-.022.482a1.143 1.143 0 0 1-.084.331.424.424 0 0 1-.141.191.31.31 0 0 1-.179.056c-.101 0-.241-.062-.432-.185a6.573 6.573 0 0 0-.724-.387 7.383 7.383 0 0 0-1.043-.387 4.667 4.667 0 0 0-1.374-.185c-.46 0-.869.05-1.217.157a2.296 2.296 0 0 0-.864.437 1.827 1.827 0 0 0-.51.679 2.022 2.022 0 0 0-.174.847c0 .426.112.785.331 1.077.219.292.499.544.852.763.348.219.752.415 1.2.594.448.174.903.354 1.369.539.465.191.925.398 1.38.628.454.23.858.511 1.206.836.353.331.633.723.847 1.183.213.46.32 1.009.32 1.643z" class="fil2 str0"/>
      <path id="25" d="M100.475 117.344c0 .213-.017.387-.051.539a2.366 2.366 0 0 1-.112.365.416.416 0 0 1-.185.196.518.518 0 0 1-.246.056h-9.114a.756.756 0 0 1-.567-.23c-.152-.152-.224-.409-.224-.774v-.561c0-.152.011-.292.034-.409.022-.124.056-.241.095-.365.045-.118.107-.247.185-.387.073-.135.168-.292.28-.466l6.534-10.134h-6.337c-.174 0-.314-.09-.421-.269-.106-.185-.157-.477-.157-.886 0-.196.011-.37.033-.516.022-.146.056-.269.107-.365a.5.5 0 0 1 .18-.196.534.534 0 0 1 .258-.056h8.491c.118 0 .224.017.32.05a.543.543 0 0 1 .241.163.924.924 0 0 1 .157.297c.033.118.056.275.056.46v.527c0 .152-.011.297-.033.426a2.113 2.113 0 0 1-.101.387 2.454 2.454 0 0 1-.18.404c-.078.14-.168.303-.28.477l-6.5 10.134h6.943c.089 0 .168.017.241.056a.458.458 0 0 1 .18.191c.05.09.09.207.123.353.034.152.051.325.051.533z" class="fil2 str0"/>
      <path id="26" d="M107.07 118.09c0 .09-.022.163-.067.224a.556.556 0 0 1-.213.157 1.744 1.744 0 0 1-.415.095 5.558 5.558 0 0 1-.673.033c-.269 0-.488-.011-.662-.033a1.805 1.805 0 0 1-.421-.095.511.511 0 0 1-.219-.157.408.408 0 0 1-.056-.224V96.144c0-.09.017-.168.056-.23a.438.438 0 0 1 .219-.168c.101-.039.241-.073.421-.095a5.4 5.4 0 0 1 .662-.034c.275 0 .499.011.673.034.18.022.314.056.415.095a.473.473 0 0 1 .213.168c.045.062.067.14.067.23v21.946z" class="fil2 str0"/>
      <path id="27" d="M125.796 110.519c0 1.206-.157 2.316-.477 3.331-.314 1.009-.791 1.884-1.419 2.619-.628.735-1.419 1.307-2.361 1.716-.948.409-2.047.617-3.292.617-1.217 0-2.277-.18-3.18-.544a5.753 5.753 0 0 1-2.255-1.576c-.6-.69-1.049-1.531-1.346-2.513-.297-.987-.443-2.103-.443-3.354 0-1.206.157-2.316.465-3.326.314-1.015.785-1.89 1.413-2.624.628-.735 1.413-1.301 2.356-1.711.942-.404 2.041-.606 3.298-.606 1.217 0 2.277.18 3.18.544a5.753 5.753 0 0 1 2.255 1.576c.6.69 1.054 1.526 1.357 2.513.297.987.449 2.098.449 3.337zm-2.827.174c0-.802-.073-1.559-.224-2.271a5.525 5.525 0 0 0-.735-1.873 3.568 3.568 0 0 0-1.385-1.273c-.578-.314-1.307-.471-2.176-.471-.802 0-1.492.14-2.07.426a3.81 3.81 0 0 0-1.424 1.211c-.376.521-.651 1.138-.83 1.85a9.284 9.284 0 0 0-.275 2.333c0 .813.073 1.576.224 2.288.146.712.393 1.335.741 1.867.348.527.813.954 1.391 1.262.583.314 1.313.471 2.182.471.791 0 1.475-.14 2.058-.426a3.833 3.833 0 0 0 1.436-1.2c.376-.516.65-1.133.824-1.845a9.904 9.904 0 0 0 .263-2.35zm-3.202-14.604a.958.958 0 0 1 .556-.477c.123-.039.28-.073.465-.095.185-.022.415-.034.679-.034.303 0 .555.017.746.056.191.039.325.095.404.168a.266.266 0 0 1 .095.247.532.532 0 0 1-.146.286l-2.978 3.831c-.09.112-.168.196-.235.263a.878.878 0 0 1-.247.157 1.417 1.417 0 0 1-.365.084 5.029 5.029 0 0 1-.55.022c-.241 0-.432-.017-.578-.05a.79.79 0 0 1-.303-.129.214.214 0 0 1-.067-.213.887.887 0 0 1 .14-.314l2.383-3.802z" class="fil2 str0"/>
    </g>
  </g>
</svg>
